<svg width="16" height="15" viewBox="0 0 16 15" fill="none" xmlns="http://www.w3.org/2000/svg">
  <path fill-rule="evenodd" clip-rule="evenodd" d="M10.5667 1.24097C11.7586 0.0203833 13.6911 0.0203837 14.883 1.24097C16.075 2.46156 16.075 4.44053 14.883 5.66112L7.70797 13.0087C6.07574 14.6802 3.42936 14.6802 1.79713 13.0087C0.164727 11.337 0.165642 8.62647 1.7977 6.95517L4.18844 4.50695L5.31627 5.66113L3.0462 7.98577C3.0462 7.98577 3.07816 7.95305 3.04464 7.98737L2.92515 8.10973C1.91542 9.14374 1.9152 10.8205 2.92459 11.8541C3.93414 12.888 5.57096 12.888 6.58051 11.8541L13.7556 4.50656C14.3248 3.92362 14.3248 2.97848 13.7556 2.39553C13.1863 1.81259 12.2634 1.81259 11.6941 2.39553L4.51905 9.74311C4.39009 9.87517 4.39009 10.0893 4.51905 10.2213C4.64801 10.3534 4.85709 10.3534 4.98605 10.2213L10.5667 4.50656L11.6941 5.66112L6.11351 11.3759C5.36187 12.1456 4.14323 12.1456 3.39159 11.3759C2.63996 10.6062 2.63996 9.35825 3.39159 8.58855L10.5667 1.24097Z" fill="#BDBDBD"/>
</svg>
